<?xml version="1.0" standalone="no"?>
<!DOCTYPE svg PUBLIC "-//W3C//DTD SVG 20010904//EN"
 "http://www.w3.org/TR/2001/REC-SVG-20010904/DTD/svg10.dtd">
<svg version="1.0" xmlns="http://www.w3.org/2000/svg"
 width="121.000000pt" height="121.000000pt" viewBox="0 0 121.000000 121.000000"
 preserveAspectRatio="xMidYMid meet">
<metadata>
Created by potrace 1.14, written by Peter Selinger 2001-2017
</metadata>
<g transform="translate(0.000000,121.000000) scale(0.100000,-0.100000)"
fill="#000000" stroke="none">
<path d="M779 908 c-61 -14 -103 -30 -132 -51 -28 -19 -28 -22 -23 -86 6 -78
16 -226 21 -319 1 -37 8 -68 14 -70 6 -2 11 -8 11 -13 0 -6 -4 -8 -9 -4 -13 7
-17 -17 -13 -80 4 -52 5 -53 37 -57 51 -6 60 2 64 52 1 25 5 47 7 49 2 3 -3
15 -11 28 -12 17 -12 23 -3 21 9 -2 14 11 16 37 5 81 5 81 68 78 31 -1 57 -3
59 -5 2 -2 33 -54 69 -115 37 -62 75 -117 86 -123 22 -12 140 -14 140 -2 0 8
-33 73 -99 195 -33 61 -39 78 -28 83 8 3 27 28 42 55 62 115 14 242 -113 300
-52 24 -156 38 -203 27z m110 -122 c39 -8 86 -39 102 -67 12 -24 1 -109 -15
-109 -6 0 -26 4 -44 9 -18 6 -61 13 -95 16 -34 4 -62 7 -63 8 0 1 2 33 5 70 8
88 14 91 110 73z"/>
<path d="M96 883 c-3 -16 -8 -73 -11 -128 -3 -55 -8 -118 -10 -140 -3 -22 -7
-60 -9 -85 -16 -150 -19 -177 -26 -196 -16 -42 -4 -45 191 -38 101 3 213 7
249 9 36 2 80 4 98 4 l34 1 -7 58 c-3 31 -10 60 -14 65 -4 4 -83 8 -176 10
l-169 2 -4 73 -4 72 34 1 c18 1 69 2 113 4 44 1 111 3 149 4 l69 1 -7 67 c-4
37 -12 70 -18 74 -11 7 -94 5 -239 -6 l-89 -7 -1 29 c-1 15 -1 34 0 41 1 6 -5
27 -14 45 -12 25 -27 37 -63 50 -63 23 -69 22 -76 -10z"/>
</g>
</svg>
