<?xml version="1.0" standalone="no"?>
<!DOCTYPE svg PUBLIC "-//W3C//DTD SVG 20010904//EN"
 "http://www.w3.org/TR/2001/REC-SVG-20010904/DTD/svg10.dtd">
<svg version="1.0" xmlns="http://www.w3.org/2000/svg"
 width="121.000000pt" height="121.000000pt" viewBox="0 0 121.000000 121.000000"
 preserveAspectRatio="xMidYMid meet">
<metadata>
Created by potrace 1.14, written by Peter Selinger 2001-2017
</metadata>
<g transform="translate(0.000000,121.000000) scale(0.100000,-0.100000)"
fill="#000000" stroke="none">
<path d="M473 1185 c-78 -17 -118 -38 -58 -30 33 4 35 3 13 -4 -29 -10 -67
-41 -49 -41 5 0 12 4 15 9 3 4 25 11 48 15 24 3 59 9 78 13 75 15 177 7 267
-22 97 -30 149 -53 165 -73 6 -6 -18 1 -53 17 -35 17 -82 33 -104 37 -38 7
-39 6 -25 -11 11 -13 11 -16 2 -11 -21 13 -215 17 -253 5 -19 -6 -45 -12 -59
-15 -39 -8 -115 -53 -171 -101 -50 -42 -107 -105 -81 -89 17 11 15 1 -13 -52
-27 -51 -35 -42 -10 11 15 29 15 30 0 12 -43 -54 -62 -226 -35 -325 6 -25 26
-70 43 -100 33 -58 113 -150 130 -150 6 0 -7 17 -27 38 -21 20 -42 45 -47 54
-5 10 16 -8 48 -40 32 -32 69 -66 83 -76 16 -11 12 -10 -12 3 -21 11 -38 16
-38 12 0 -15 104 -69 163 -84 34 -9 96 -14 160 -13 104 1 105 1 163 40 79 53
105 77 97 89 -3 6 -1 7 4 4 16 -10 92 78 120 139 14 31 27 74 29 97 l4 42 -11
-35 c-15 -48 -25 -58 -54 -52 -15 2 -25 0 -25 -8 0 -7 8 -9 20 -5 35 11 22 -9
-59 -91 -88 -89 -149 -127 -237 -147 -152 -35 -330 35 -411 160 -19 30 -37 52
-40 49 -8 -7 35 -75 71 -114 17 -18 24 -30 14 -27 -23 9 -97 118 -125 184 -18
42 -22 48 -19 25 2 -17 9 -41 15 -52 16 -30 31 -72 26 -72 -9 0 -53 95 -63
135 -15 58 -25 163 -14 147 6 -9 11 3 15 37 12 100 76 191 185 263 75 48 87
62 31 32 -17 -8 -33 -13 -36 -10 -8 8 98 54 161 71 28 7 76 12 106 10 77 -4
194 -17 199 -21 2 -2 9 0 16 6 18 15 115 -37 164 -88 24 -26 41 -39 38 -29 -4
11 -3 16 4 12 6 -4 8 -14 5 -22 -3 -8 8 -37 25 -66 17 -29 28 -41 25 -28 -8
39 11 10 30 -44 23 -68 27 -221 8 -305 -13 -56 -66 -161 -107 -210 -35 -43
-125 -112 -175 -135 -138 -63 -280 -71 -415 -23 -45 16 -94 30 -108 31 -33 3
-129 87 -177 157 -43 61 -96 187 -113 267 -5 28 -17 58 -26 65 -14 11 -15 4
-9 -72 14 -173 65 -281 182 -387 101 -92 141 -117 232 -148 115 -39 196 -42
317 -11 138 35 226 81 303 157 107 105 161 200 162 280 0 25 -3 49 -7 53 -4 4
-8 70 -8 147 -1 119 1 135 12 111 l12 -27 -5 30 c-3 17 -16 51 -29 78 -30 58
-25 61 9 5 14 -24 26 -39 26 -34 0 16 -63 126 -72 126 -5 0 -6 -6 -3 -12 4 -7
-1 -4 -9 6 -9 11 -16 24 -16 29 0 4 -8 7 -18 5 -10 -2 -43 16 -73 38 -69 53
-100 69 -212 106 -78 26 -108 31 -199 32 -60 0 -108 4 -108 9 0 8 20 10 88 10
23 0 42 4 42 8 0 13 -85 9 -157 -6z m518 -162 c13 -16 12 -17 -3 -4 -10 7 -18
15 -18 17 0 8 8 3 21 -13z m-661 -41 c-14 -9 -45 -35 -70 -56 -34 -29 -31 -25
12 17 31 32 62 57 70 56 7 0 2 -8 -12 -17z m847 -484 c-3 -8 -6 -5 -6 6 -1 11
2 17 5 13 3 -3 4 -12 1 -19z m-16 -27 c7 11 9 11 9 -1 0 -9 -9 -24 -21 -34
-13 -11 -19 -25 -16 -38 3 -11 3 -18 0 -15 -3 3 -28 -24 -55 -61 -46 -60 -143
-162 -156 -162 -2 0 29 36 71 79 55 58 86 101 114 159 21 44 40 75 42 70 2 -6
7 -4 12 3z m-10 -64 c-10 -9 -11 -8 -5 6 3 10 9 15 12 12 3 -3 0 -11 -7 -18z
m-786 -271 c20 -14 55 -29 78 -35 23 -5 62 -15 87 -21 53 -13 156 -6 226 15
57 17 82 19 68 6 -15 -15 -141 -41 -200 -41 -100 0 -276 53 -299 90 -10 16 1
12 40 -14z"/>
<path d="M640 1187 c3 -3 30 -8 60 -12 30 -4 60 -9 65 -12 6 -3 5 0 -2 7 -7 7
-38 15 -70 18 -32 2 -56 2 -53 -1z"/>
<path d="M312 1129 c-24 -10 -46 -18 -50 -17 -12 4 -53 -23 -48 -31 3 -4 -29
-41 -69 -81 -41 -41 -75 -81 -75 -88 0 -7 4 -10 10 -7 14 9 12 -5 -5 -35 -32
-56 -12 -49 22 7 43 69 88 124 100 122 20 -3 34 4 87 51 31 28 63 50 69 50 7
0 3 6 -7 12 -18 10 -18 11 5 24 35 20 11 15 -39 -7z m-52 -23 c0 -2 -8 -10
-17 -17 -16 -13 -17 -12 -4 4 13 16 21 21 21 13z m60 -10 c0 -2 -8 -10 -17
-17 -16 -13 -17 -12 -4 4 13 16 21 21 21 13z m-40 -29 c0 -2 -10 -12 -22 -23
l-23 -19 19 23 c18 21 26 27 26 19z m-50 -41 c0 -2 -8 -10 -17 -17 -16 -13
-17 -12 -4 4 13 16 21 21 21 13z"/>
<path d="M176 1065 c-11 -8 -18 -17 -15 -19 2 -3 15 4 29 14 14 11 21 20 15
19 -5 0 -19 -6 -29 -14z"/>
<path d="M486 1053 c-67 -20 -53 -25 25 -9 35 7 87 13 116 12 28 0 49 3 46 7
-7 12 -133 6 -187 -10z"/>
<path d="M690 1061 c0 -8 52 -22 58 -16 2 1 -11 7 -27 13 -17 6 -31 7 -31 3z"/>
<path d="M785 1026 c42 -23 148 -138 178 -194 32 -60 51 -155 45 -232 -2 -33
-1 -55 4 -48 4 7 8 28 8 46 0 20 4 31 10 27 6 -3 10 -1 10 4 0 6 -4 11 -9 11
-5 0 -12 28 -16 63 -4 34 -14 78 -21 97 -16 37 -81 127 -116 160 -12 11 -17
20 -12 20 5 0 33 -23 61 -51 60 -58 92 -130 100 -221 3 -32 9 -58 14 -58 4 0
6 10 4 23 -8 54 -14 131 -9 119 4 -7 14 -46 25 -85 l18 -72 -3 76 c-3 93 -35
157 -116 237 -61 60 -157 118 -134 80 5 -8 2 -9 -12 -4 -39 16 -58 17 -29 2z
m239 -192 c3 -8 2 -12 -4 -9 -6 3 -10 10 -10 16 0 14 7 11 14 -7z"/>
<path d="M269 863 c0 -16 -2 -41 -4 -58 -2 -16 -6 -61 -9 -100 -7 -77 -16
-159 -21 -192 -3 -21 -1 -22 73 -18 42 2 123 4 180 5 56 1 105 7 108 12 3 5 3
25 0 44 l-7 34 -109 0 c-91 0 -110 3 -111 15 -1 8 -2 30 -3 48 -1 36 -11 34
137 36 l87 1 0 44 c0 48 -7 54 -60 51 -144 -10 -155 -9 -158 11 -8 52 -15 65
-42 79 -44 23 -60 19 -61 -12z"/>
<path d="M662 870 l-44 -20 8 -122 c4 -68 7 -135 6 -150 0 -15 3 -30 8 -33 6
-4 7 -14 2 -23 -5 -9 -7 -23 -6 -29 1 -7 2 -22 3 -33 1 -14 8 -20 25 -20 14 0
28 5 31 11 12 18 12 74 1 81 -8 5 -7 8 2 8 7 0 12 15 12 39 l0 40 41 -2 c39
-1 42 -4 80 -69 21 -36 46 -74 55 -82 18 -18 94 -22 94 -5 0 6 -19 46 -42 89
l-41 77 24 34 c31 43 32 116 3 157 -50 68 -174 92 -262 52z m169 -74 c21 -9
35 -44 31 -77 -3 -25 -5 -26 -40 -18 -20 5 -52 9 -70 9 -32 0 -32 1 -30 45 1
29 7 49 16 54 14 8 57 2 93 -13z"/>
<path d="M42 775 c-7 -14 -12 -34 -12 -43 1 -9 7 1 15 23 16 45 14 58 -3 20z"/>
<path d="M1071 614 c0 -11 3 -14 6 -6 3 7 2 16 -1 19 -3 4 -6 -2 -5 -13z"/>
<path d="M180 596 c0 -14 4 -27 8 -30 5 -3 6 8 4 25 -5 35 -12 38 -12 5z"/>
<path d="M1026 549 c-8 -42 0 -50 9 -9 4 17 5 34 2 36 -2 3 -7 -10 -11 -27z"/>
<path d="M104 427 c19 -46 83 -132 132 -177 24 -22 17 -12 -18 28 -31 35 -69
88 -84 118 -32 63 -52 84 -30 31z"/>
</g>
</svg>
